G04*
G04 #@! TF.GenerationSoftware,Altium Limited,Altium Designer,21.6.4 (81)*
G04*
G04 Layer_Color=16711935*
%FSLAX24Y24*%
%MOIN*%
G70*
G04*
G04 #@! TF.SameCoordinates,C872EA01-BEF4-4682-9824-B52BD61A81C0*
G04*
G04*
G04 #@! TF.FilePolarity,Positive*
G04*
G01*
G75*
%ADD10C,0.0100*%
%ADD24C,0.0000*%
%ADD25C,0.0060*%
D10*
X-950Y600D02*
X-750Y0D01*
X-550Y600D01*
X-750Y13500D02*
X-550Y12900D01*
X-950D02*
X-750Y13500D01*
Y0D02*
Y4881D01*
Y8299D02*
Y13500D01*
X-850Y0D02*
X-250D01*
X-850Y13500D02*
X-250D01*
X0Y14250D02*
X600Y14450D01*
X0Y14250D02*
X600Y14050D01*
X15500D02*
X16100Y14250D01*
X15500Y14450D02*
X16100Y14250D01*
X0D02*
X6230D01*
X9550D02*
X16100D01*
X0Y13750D02*
Y14350D01*
X16100Y13750D02*
Y14350D01*
D24*
X0Y0D02*
Y13500D01*
X16100D01*
Y0D02*
Y13500D01*
X0Y0D02*
X16100D01*
D25*
X-390Y5041D02*
Y5240D01*
Y5140D01*
X-990D01*
X-890Y5041D01*
X-390Y5540D02*
X-490D01*
Y5640D01*
X-390D01*
Y5540D01*
X-890Y6040D02*
X-990Y6140D01*
Y6340D01*
X-890Y6440D01*
X-790D01*
X-690Y6340D01*
Y6240D01*
Y6340D01*
X-590Y6440D01*
X-490D01*
X-390Y6340D01*
Y6140D01*
X-490Y6040D01*
X-990Y7040D02*
Y6640D01*
X-690D01*
X-790Y6840D01*
Y6940D01*
X-690Y7040D01*
X-490D01*
X-390Y6940D01*
Y6740D01*
X-490Y6640D01*
X-390Y7240D02*
Y7440D01*
Y7340D01*
X-790D01*
Y7240D01*
X-390Y7740D02*
X-790D01*
Y8040D01*
X-690Y8140D01*
X-390D01*
X6390Y13890D02*
X6590D01*
X6490D01*
Y14490D01*
X6390Y14390D01*
X6890Y13890D02*
Y13990D01*
X6990D01*
Y13890D01*
X6890D01*
X7790Y14490D02*
X7590Y14390D01*
X7390Y14190D01*
Y13990D01*
X7490Y13890D01*
X7690D01*
X7790Y13990D01*
Y14090D01*
X7690Y14190D01*
X7390D01*
X7990Y13890D02*
X8190D01*
X8090D01*
Y14490D01*
X7990Y14390D01*
X8490Y13890D02*
X8690D01*
X8590D01*
Y14290D01*
X8490D01*
X8990Y13890D02*
Y14290D01*
X9290D01*
X9390Y14190D01*
Y13890D01*
M02*
