G04*
G04 #@! TF.GenerationSoftware,Altium Limited,Altium Designer,21.6.4 (81)*
G04*
G04 Layer_Physical_Order=2*
G04 Layer_Color=16711680*
%FSLAX24Y24*%
%MOIN*%
G70*
G04*
G04 #@! TF.SameCoordinates,C872EA01-BEF4-4682-9824-B52BD61A81C0*
G04*
G04*
G04 #@! TF.FilePolarity,Positive*
G04*
G01*
G75*
%ADD22C,0.0600*%
%ADD23C,0.0500*%
G36*
X15850Y250D02*
X250D01*
Y13250D01*
X15850D01*
Y250D01*
D02*
G37*
%LPC*%
G36*
X4703Y12450D02*
X4597D01*
X4496Y12423D01*
X4404Y12370D01*
X4330Y12296D01*
X4277Y12204D01*
X4250Y12103D01*
Y11997D01*
X4277Y11896D01*
X4330Y11804D01*
X4404Y11730D01*
X4496Y11677D01*
X4597Y11650D01*
X4703D01*
X4804Y11677D01*
X4896Y11730D01*
X4970Y11804D01*
X5023Y11896D01*
X5050Y11997D01*
Y12103D01*
X5023Y12204D01*
X4970Y12296D01*
X4896Y12370D01*
X4804Y12423D01*
X4703Y12450D01*
D02*
G37*
G36*
X3703D02*
X3597D01*
X3496Y12423D01*
X3404Y12370D01*
X3330Y12296D01*
X3277Y12204D01*
X3250Y12103D01*
Y11997D01*
X3277Y11896D01*
X3330Y11804D01*
X3404Y11730D01*
X3496Y11677D01*
X3597Y11650D01*
X3703D01*
X3804Y11677D01*
X3896Y11730D01*
X3970Y11804D01*
X4023Y11896D01*
X4050Y11997D01*
Y12103D01*
X4023Y12204D01*
X3970Y12296D01*
X3896Y12370D01*
X3804Y12423D01*
X3703Y12450D01*
D02*
G37*
G36*
X2703D02*
X2597D01*
X2496Y12423D01*
X2404Y12370D01*
X2330Y12296D01*
X2277Y12204D01*
X2250Y12103D01*
Y11997D01*
X2277Y11896D01*
X2330Y11804D01*
X2404Y11730D01*
X2496Y11677D01*
X2597Y11650D01*
X2703D01*
X2804Y11677D01*
X2896Y11730D01*
X2970Y11804D01*
X3023Y11896D01*
X3050Y11997D01*
Y12103D01*
X3023Y12204D01*
X2970Y12296D01*
X2896Y12370D01*
X2804Y12423D01*
X2703Y12450D01*
D02*
G37*
G36*
X1703D02*
X1597D01*
X1496Y12423D01*
X1404Y12370D01*
X1330Y12296D01*
X1277Y12204D01*
X1250Y12103D01*
Y11997D01*
X1277Y11896D01*
X1330Y11804D01*
X1404Y11730D01*
X1496Y11677D01*
X1597Y11650D01*
X1703D01*
X1804Y11677D01*
X1896Y11730D01*
X1970Y11804D01*
X2023Y11896D01*
X2050Y11997D01*
Y12103D01*
X2023Y12204D01*
X1970Y12296D01*
X1896Y12370D01*
X1804Y12423D01*
X1703Y12450D01*
D02*
G37*
G36*
X11400Y9899D02*
Y9600D01*
X11699D01*
X11676Y9685D01*
X11630Y9765D01*
X11565Y9830D01*
X11485Y9876D01*
X11400Y9899D01*
D02*
G37*
G36*
X11300D02*
X11215Y9876D01*
X11135Y9830D01*
X11070Y9765D01*
X11024Y9685D01*
X11001Y9600D01*
X11300D01*
Y9899D01*
D02*
G37*
G36*
X11699Y9500D02*
X11400D01*
Y9201D01*
X11485Y9224D01*
X11565Y9270D01*
X11630Y9335D01*
X11676Y9415D01*
X11699Y9500D01*
D02*
G37*
G36*
X11300D02*
X11001D01*
X11024Y9415D01*
X11070Y9335D01*
X11135Y9270D01*
X11215Y9224D01*
X11300Y9201D01*
Y9500D01*
D02*
G37*
G36*
X8000Y8649D02*
Y8350D01*
X8299D01*
X8276Y8435D01*
X8230Y8515D01*
X8165Y8580D01*
X8085Y8626D01*
X8000Y8649D01*
D02*
G37*
G36*
X7900D02*
X7815Y8626D01*
X7735Y8580D01*
X7670Y8515D01*
X7624Y8435D01*
X7601Y8350D01*
X7900D01*
Y8649D01*
D02*
G37*
G36*
X8299Y8250D02*
X8000D01*
Y7951D01*
X8085Y7974D01*
X8165Y8020D01*
X8230Y8085D01*
X8276Y8165D01*
X8299Y8250D01*
D02*
G37*
G36*
X7900D02*
X7601D01*
X7624Y8165D01*
X7670Y8085D01*
X7735Y8020D01*
X7815Y7974D01*
X7900Y7951D01*
Y8250D01*
D02*
G37*
G36*
X1653Y1650D02*
X1650D01*
Y1300D01*
X2000D01*
Y1303D01*
X1973Y1404D01*
X1920Y1496D01*
X1846Y1570D01*
X1754Y1623D01*
X1653Y1650D01*
D02*
G37*
G36*
X1550D02*
X1547D01*
X1446Y1623D01*
X1354Y1570D01*
X1280Y1496D01*
X1227Y1404D01*
X1200Y1303D01*
Y1300D01*
X1550D01*
Y1650D01*
D02*
G37*
G36*
X14653D02*
X14547D01*
X14446Y1623D01*
X14354Y1570D01*
X14280Y1496D01*
X14227Y1404D01*
X14200Y1303D01*
Y1197D01*
X14227Y1096D01*
X14280Y1004D01*
X14354Y930D01*
X14446Y877D01*
X14547Y850D01*
X14653D01*
X14754Y877D01*
X14846Y930D01*
X14920Y1004D01*
X14973Y1096D01*
X15000Y1197D01*
Y1303D01*
X14973Y1404D01*
X14920Y1496D01*
X14846Y1570D01*
X14754Y1623D01*
X14653Y1650D01*
D02*
G37*
G36*
X13653D02*
X13547D01*
X13446Y1623D01*
X13354Y1570D01*
X13280Y1496D01*
X13227Y1404D01*
X13200Y1303D01*
Y1197D01*
X13227Y1096D01*
X13280Y1004D01*
X13354Y930D01*
X13446Y877D01*
X13547Y850D01*
X13653D01*
X13754Y877D01*
X13846Y930D01*
X13920Y1004D01*
X13973Y1096D01*
X14000Y1197D01*
Y1303D01*
X13973Y1404D01*
X13920Y1496D01*
X13846Y1570D01*
X13754Y1623D01*
X13653Y1650D01*
D02*
G37*
G36*
X12653D02*
X12547D01*
X12446Y1623D01*
X12354Y1570D01*
X12280Y1496D01*
X12227Y1404D01*
X12200Y1303D01*
Y1197D01*
X12227Y1096D01*
X12280Y1004D01*
X12354Y930D01*
X12446Y877D01*
X12547Y850D01*
X12653D01*
X12754Y877D01*
X12846Y930D01*
X12920Y1004D01*
X12973Y1096D01*
X13000Y1197D01*
Y1303D01*
X12973Y1404D01*
X12920Y1496D01*
X12846Y1570D01*
X12754Y1623D01*
X12653Y1650D01*
D02*
G37*
G36*
X10653D02*
X10547D01*
X10446Y1623D01*
X10354Y1570D01*
X10280Y1496D01*
X10227Y1404D01*
X10200Y1303D01*
Y1197D01*
X10227Y1096D01*
X10280Y1004D01*
X10354Y930D01*
X10446Y877D01*
X10547Y850D01*
X10653D01*
X10754Y877D01*
X10846Y930D01*
X10920Y1004D01*
X10973Y1096D01*
X11000Y1197D01*
Y1303D01*
X10973Y1404D01*
X10920Y1496D01*
X10846Y1570D01*
X10754Y1623D01*
X10653Y1650D01*
D02*
G37*
G36*
X9653D02*
X9547D01*
X9446Y1623D01*
X9354Y1570D01*
X9280Y1496D01*
X9227Y1404D01*
X9200Y1303D01*
Y1197D01*
X9227Y1096D01*
X9280Y1004D01*
X9354Y930D01*
X9446Y877D01*
X9547Y850D01*
X9653D01*
X9754Y877D01*
X9846Y930D01*
X9920Y1004D01*
X9973Y1096D01*
X10000Y1197D01*
Y1303D01*
X9973Y1404D01*
X9920Y1496D01*
X9846Y1570D01*
X9754Y1623D01*
X9653Y1650D01*
D02*
G37*
G36*
X8653D02*
X8547D01*
X8446Y1623D01*
X8354Y1570D01*
X8280Y1496D01*
X8227Y1404D01*
X8200Y1303D01*
Y1197D01*
X8227Y1096D01*
X8280Y1004D01*
X8354Y930D01*
X8446Y877D01*
X8547Y850D01*
X8653D01*
X8754Y877D01*
X8846Y930D01*
X8920Y1004D01*
X8973Y1096D01*
X9000Y1197D01*
Y1303D01*
X8973Y1404D01*
X8920Y1496D01*
X8846Y1570D01*
X8754Y1623D01*
X8653Y1650D01*
D02*
G37*
G36*
X7653D02*
X7547D01*
X7446Y1623D01*
X7354Y1570D01*
X7280Y1496D01*
X7227Y1404D01*
X7200Y1303D01*
Y1197D01*
X7227Y1096D01*
X7280Y1004D01*
X7354Y930D01*
X7446Y877D01*
X7547Y850D01*
X7653D01*
X7754Y877D01*
X7846Y930D01*
X7920Y1004D01*
X7973Y1096D01*
X8000Y1197D01*
Y1303D01*
X7973Y1404D01*
X7920Y1496D01*
X7846Y1570D01*
X7754Y1623D01*
X7653Y1650D01*
D02*
G37*
G36*
X6653D02*
X6547D01*
X6446Y1623D01*
X6354Y1570D01*
X6280Y1496D01*
X6227Y1404D01*
X6200Y1303D01*
Y1197D01*
X6227Y1096D01*
X6280Y1004D01*
X6354Y930D01*
X6446Y877D01*
X6547Y850D01*
X6653D01*
X6754Y877D01*
X6846Y930D01*
X6920Y1004D01*
X6973Y1096D01*
X7000Y1197D01*
Y1303D01*
X6973Y1404D01*
X6920Y1496D01*
X6846Y1570D01*
X6754Y1623D01*
X6653Y1650D01*
D02*
G37*
G36*
X5653D02*
X5547D01*
X5446Y1623D01*
X5354Y1570D01*
X5280Y1496D01*
X5227Y1404D01*
X5200Y1303D01*
Y1197D01*
X5227Y1096D01*
X5280Y1004D01*
X5354Y930D01*
X5446Y877D01*
X5547Y850D01*
X5653D01*
X5754Y877D01*
X5846Y930D01*
X5920Y1004D01*
X5973Y1096D01*
X6000Y1197D01*
Y1303D01*
X5973Y1404D01*
X5920Y1496D01*
X5846Y1570D01*
X5754Y1623D01*
X5653Y1650D01*
D02*
G37*
G36*
X4653D02*
X4547D01*
X4446Y1623D01*
X4354Y1570D01*
X4280Y1496D01*
X4227Y1404D01*
X4200Y1303D01*
Y1197D01*
X4227Y1096D01*
X4280Y1004D01*
X4354Y930D01*
X4446Y877D01*
X4547Y850D01*
X4653D01*
X4754Y877D01*
X4846Y930D01*
X4920Y1004D01*
X4973Y1096D01*
X5000Y1197D01*
Y1303D01*
X4973Y1404D01*
X4920Y1496D01*
X4846Y1570D01*
X4754Y1623D01*
X4653Y1650D01*
D02*
G37*
G36*
X3653D02*
X3547D01*
X3446Y1623D01*
X3354Y1570D01*
X3280Y1496D01*
X3227Y1404D01*
X3200Y1303D01*
Y1197D01*
X3227Y1096D01*
X3280Y1004D01*
X3354Y930D01*
X3446Y877D01*
X3547Y850D01*
X3653D01*
X3754Y877D01*
X3846Y930D01*
X3920Y1004D01*
X3973Y1096D01*
X4000Y1197D01*
Y1303D01*
X3973Y1404D01*
X3920Y1496D01*
X3846Y1570D01*
X3754Y1623D01*
X3653Y1650D01*
D02*
G37*
G36*
X2653D02*
X2547D01*
X2446Y1623D01*
X2354Y1570D01*
X2280Y1496D01*
X2227Y1404D01*
X2200Y1303D01*
Y1197D01*
X2227Y1096D01*
X2280Y1004D01*
X2354Y930D01*
X2446Y877D01*
X2547Y850D01*
X2653D01*
X2754Y877D01*
X2846Y930D01*
X2920Y1004D01*
X2973Y1096D01*
X3000Y1197D01*
Y1303D01*
X2973Y1404D01*
X2920Y1496D01*
X2846Y1570D01*
X2754Y1623D01*
X2653Y1650D01*
D02*
G37*
G36*
X2000Y1200D02*
X1650D01*
Y850D01*
X1653D01*
X1754Y877D01*
X1846Y930D01*
X1920Y1004D01*
X1973Y1096D01*
X2000Y1197D01*
Y1200D01*
D02*
G37*
G36*
X1550D02*
X1200D01*
Y1197D01*
X1227Y1096D01*
X1280Y1004D01*
X1354Y930D01*
X1446Y877D01*
X1547Y850D01*
X1550D01*
Y1200D01*
D02*
G37*
%LPD*%
D22*
X14600Y1250D02*
D03*
X13600D02*
D03*
X12600D02*
D03*
X10600D02*
D03*
X9600D02*
D03*
X8600D02*
D03*
X7600D02*
D03*
X6600D02*
D03*
X5600D02*
D03*
X4600D02*
D03*
X3600D02*
D03*
X2600D02*
D03*
X1600D02*
D03*
X4650Y12050D02*
D03*
X3650D02*
D03*
X2650D02*
D03*
X1650D02*
D03*
D23*
X7950Y8300D02*
D03*
X11350Y9550D02*
D03*
M02*
